PathFileType	4	(X/Y/Z)	C:/Users/opensim2020/Desktop/walking_exp_matlab/subject06_walking14_straight_01.trc																																																																																																																																					
DataRate	CameraRate	NumFrames	NumMarkers	Units	OrigDataRate	OrigDataStartFrame	OrigNumFrames																																																																																																																																	
100	100	5	45	mm	100	810	203																																																																																																																																	
Frame#	Time	LFHD			RFHD			LBHD			RBHD			C7			T10			CLAV			STRN			RBAK			LSHO			LUPA			LELB			LFRM			LWRA			LWRB			LFIN			RSHO			RUPA			RELB			RFRM			RWRA			RWRB			RFIN			LASI			RASI			LPSI			RPSI			LTHI			LKNE			LTIB			LANK			LHEE			LTOE			RTHI			RKNE			RTIB			RANK			RHEE			RTOE			*39			*40			*41			*42			*43			*44		
		X1	Y1	Z1	X2	Y2	Z2	X3	Y3	Z3	X4	Y4	Z4	X5	Y5	Z5	X6	Y6	Z6	X7	Y7	Z7	X8	Y8	Z8	X9	Y9	Z9	X10	Y10	Z10	X11	Y11	Z11	X12	Y12	Z12	X13	Y13	Z13	X14	Y14	Z14	X15	Y15	Z15	X16	Y16	Z16	X17	Y17	Z17	X18	Y18	Z18	X19	Y19	Z19	X20	Y20	Z20	X21	Y21	Z21	X22	Y22	Z22	X23	Y23	Z23	X24	Y24	Z24	X25	Y25	Z25	X26	Y26	Z26	X27	Y27	Z27	X28	Y28	Z28	X29	Y29	Z29	X30	Y30	Z30	X31	Y31	Z31	X32	Y32	Z32	X33	Y33	Z33	X34	Y34	Z34	X35	Y35	Z35	X36	Y36	Z36	X37	Y37	Z37	X38	Y38	Z38	X39	Y39	Z39	X40	Y40	Z40	X41	Y41	Z41	X42	Y42	Z42	X43	Y43	Z43	X44	Y44	Z44	X45	Y45	Z45
																																																																																																																																								
1	0	-1200.91614	1646.06909	1376.26611	-1190.94202	1639.40173	1507.66138	-1337.34436	1600.18372	1387.61975	-1325.43872	1598.56311	1516.47375	-1343.71204	1443.54236	1449.86157	-1392.18677	1115.38928	1466.61426	-1236.54199	1360.11975	1444.41089	-1206.36975	1183.65479	1442.9884	-1420.05725	1277.25867	1538.30652	-1304.39563	1391.10632	1285.4989	-1361.79858	1197.40417	1220.80798	-1399.86108	1091.21338	1214.26208	-1420.99963	943.91241	1185.88977	-1378.83618	815.53357	1203.62708	-1449.52112	827.65656	1190.4491	-1431.4884	738.79327	1176.40698	-1270.34082	1396.76416	1607.53662	-1292.4574	1199.44128	1701.82593	-1272.58997	1080.07544	1720.19299	-1244.875	963.19263	1740.50842	-1173.88232	828.71387	1710.77319	-1226.71143	827.71613	1755.53333	-1181.15894	756.59619	1759.96948	-1223.63745	958.8667	1350.06543	-1228.27661	946.04547	1568.04529	-1380.4856	986.93585	1373.82117	-1376.42236	979.61554	1540.95691	-1261.27966	651.07526	1270.90662	-1237.24243	492.09073	1296.63281	-1217.0271	236.88962	1293.84204	-1179.11584	69.38787	1331.3114	-1215.35229	54.41098	1377.93433	-1031.3512	43.44023	1331.69971	-1343.2832	617.89618	1611.20227	-1369.52026	493.47824	1593.57251	-1538.76331	282.46906	1588.81787	-1648.96423	132.59578	1547.75598	-1695.18945	128.26782	1502.21069	-1533.21277	39.43837	1563.57715	-1293.74023	1692.74451	1441.07104	NaN	NaN	NaN	NaN	NaN	NaN	NaN	NaN	NaN	NaN	NaN	NaN	NaN	NaN	NaN
2	0.01	-1193.50378	1648.53711	1375.18372	-1184.00757	1641.61011	1506.58752	-1330.05127	1602.5946	1385.92871	-1318.57214	1600.79358	1514.85254	-1336.34937	1445.68066	1447.89941	-1383.94287	1117.43542	1464.61096	-1229.18213	1362.58276	1442.67773	-1198.14197	1186.276	1440.95386	-1412.34985	1279.07739	1536.17932	-1296.19104	1393.56799	1283.68884	-1351.34424	1199.2301	1218.58423	-1388.02856	1092.36182	1211.52344	-1407.50781	944.64667	1183.43396	-1366.34033	817.13672	1202.63123	-1436.35754	828.53693	1187.43237	-1418.12146	740.06305	1174.37195	-1263.50342	1399.03589	1605.80017	-1285.91785	1201.57678	1699.49915	-1266.21643	1082.19568	1717.89099	-1238.96729	965.41547	1738.25549	-1168.31128	831.18768	1709.98987	-1220.68469	829.64941	1753.21143	-1175.19421	758.75867	1758.04089	-1214.99805	961.51184	1347.69531	-1218.84937	948.60046	1565.73254	-1371.66956	989.03595	1372.1355	-1367.30811	981.3465	1539.13892	-1253.5415	653.09814	1269.42078	-1231.79614	493.30182	1294.39636	-1215.1156	237.9017	1292.86487	-1179.18469	69.62049	1330.71069	-1215.74341	54.44783	1377.20544	-1031.94702	43.88195	1332.13025	-1331.91052	619.55328	1610.04358	-1356.92212	494.7814	1593.03162	-1529.77271	286.56766	1588.67944	-1642.92383	139.03114	1547.9397	-1688.84985	136.74367	1502.23486	-1532.02124	39.85106	1563.67188	-1286.6228	1695.0835	1439.64636	NaN	NaN	NaN	NaN	NaN	NaN	NaN	NaN	NaN	NaN	NaN	NaN	NaN	NaN	NaN
3	0.02	-1186.11426	1650.8241	1374.02686	-1176.99927	1643.83752	1505.4126	-1322.66736	1605.04395	1384.22876	-1311.70239	1603.08105	1513.14917	-1328.96094	1447.73865	1446.02161	-1375.66785	1119.55457	1462.42725	-1221.62976	1365.02356	1440.93591	-1190.05725	1188.92432	1438.9707	-1404.50977	1281.02612	1534.17029	-1288.11853	1396.24182	1281.87891	-1340.85889	1201.30566	1216.25891	-1376.5321	1094.39111	1208.75598	-1394.79211	946.42426	1180.77173	-1353.17639	819.02667	1201.49207	-1422.63525	830.08368	1184.5376	-1403.75842	741.52509	1172.35425	-1256.50513	1401.41785	1603.91589	-1279.27722	1204.08618	1697.50256	-1259.92188	1084.52686	1715.60498	-1232.88464	967.6817	1735.96704	-1162.21472	833.43323	1708.00879	-1214.88428	831.82397	1750.89441	-1169.53711	760.85229	1755.84656	-1206.17651	964.1687	1345.46838	-1210.40356	951.25116	1562.83765	-1362.82275	991.16852	1370.31665	-1358.1405	983.28754	1537.11914	-1245.89441	655.00452	1268.14758	-1226.59216	494.37143	1292.45837	-1213.14514	238.70367	1291.73572	-1179.40466	69.66951	1330.00745	-1216.31592	54.43312	1376.47229	-1032.75452	44.29636	1332.25269	-1320.15259	621.22321	1609.06006	-1343.64075	496.17087	1592.86084	-1520.2937	290.9837	1588.62439	-1636.43738	146.14436	1548.04077	-1681.3197	145.48041	1501.99744	-1530.97839	40.16703	1563.86536	-1279.37744	1697.46411	1438.2262	NaN	NaN	NaN	NaN	NaN	NaN	NaN	NaN	NaN	NaN	NaN	NaN	NaN	NaN	NaN
4	0.03	-1178.70398	1652.97253	1372.69482	-1169.94128	1645.85632	1504.11621	-1315.29773	1607.39441	1382.55054	-1304.66455	1605.32617	1511.51013	-1321.47925	1449.56934	1444.17517	-1367.33215	1121.56482	1459.98706	-1213.9281	1367.30872	1439.23828	-1181.54968	1191.45203	1436.76294	-1396.54431	1282.86536	1532.19885	-1280.09778	1399.0614	1280.23145	-1330.74731	1203.70337	1213.63806	-1365.42725	1096.38867	1205.91992	-1381.71533	948.51318	1178.18762	-1339.86804	821.15668	1200.22351	-1408.51208	831.91907	1181.47888	-1388.71484	743.18713	1170.1156	-1249.41748	1403.75256	1601.92212	-1272.20703	1206.45349	1695.40015	-1253.59937	1086.82544	1713.2948	-1226.89868	969.99481	1733.78284	-1156.29297	835.59583	1706.05212	-1209.34888	834.11078	1748.56067	-1163.98279	762.79681	1753.64343	-1197.55725	966.46747	1343.22083	-1200.79419	954.02161	1560.06323	-1353.81873	993.18469	1368.33752	-1348.92883	985.29474	1534.93079	-1239	656.62854	1266.46899	-1221.32434	495.40417	1290.16101	-1211.04822	239.23311	1290.52368	-1179.81201	69.70547	1329.72266	-1216.85242	54.39543	1375.97388	-1033.67786	44.69145	1332.1322	-1307.83154	622.74908	1608.27832	-1329.53064	497.28235	1592.90955	-1510.01306	295.49579	1588.47632	-1629.23682	153.49527	1548.17859	-1672.96045	154.6308	1501.63977	-1530.00964	40.7326	1564.45801	-1272.0293	1699.71472	1436.68103	NaN	NaN	NaN	NaN	NaN	NaN	NaN	NaN	NaN	NaN	NaN	NaN	NaN	NaN	NaN
5	0.04	-1171.15137	1654.84705	1371.41504	-1162.79626	1647.71826	1502.78723	-1307.84973	1609.41089	1380.84277	-1297.62415	1607.34766	1509.83374	-1313.85168	1451.09851	1442.26697	-1359.00879	1123.42822	1457.37793	-1205.81116	1369.47864	1437.33252	-1172.83972	1193.81335	1434.63086	-1388.42603	1284.52673	1530.15381	-1272.02222	1401.76477	1278.56641	-1320.11609	1205.99219	1211.35242	-1353.23804	1098.2699	1203.23083	-1368.50317	950.58435	1175.58679	-1324.61133	822.95996	1198.26367	-1393.66809	833.48529	1178.35913	-1372.55481	744.70325	1168.09009	-1242.2854	1405.88953	1599.78052	-1265.29675	1208.88159	1693.29016	-1247.22925	1089.05359	1710.99011	-1220.76855	972.11987	1731.63611	-1150.48108	837.56976	1704.07312	-1203.69019	836.08746	1746.34265	-1158.52612	764.50092	1751.31982	-1189.02844	968.42957	1340.88171	-1191.51428	956.78973	1557.78699	-1344.80518	994.97632	1366.15479	-1339.82056	987.05688	1532.51086	-1232.81519	657.88531	1264.45264	-1216.29053	496.15106	1288.09534	-1208.80078	239.70154	1289.32922	-1180.05444	69.67081	1329.49072	-1217.31714	54.13092	1375.53357	-1034.43103	45.17742	1332.25806	-1295.10828	624.07605	1607.65295	-1314.70093	498.0741	1593.32288	-1498.86987	299.99908	1588.47339	-1621.047	160.79994	1548.24512	-1663.44556	163.438	1501.20886	-1528.28772	41.68541	1565.34119	-1264.57434	1701.62268	1435.0918	NaN	NaN	NaN	NaN	NaN	NaN	NaN	NaN	NaN	NaN	NaN	NaN	NaN	NaN	NaN
